<?xml version="1.0" standalone="no"?>
<!DOCTYPE svg PUBLIC "-//W3C//DTD SVG 20010904//EN"
 "http://www.w3.org/TR/2001/REC-SVG-20010904/DTD/svg10.dtd">
<svg version="1.0" xmlns="http://www.w3.org/2000/svg"
 width="693.000000pt" height="693.000000pt" viewBox="0 0 693.000000 693.000000"
 preserveAspectRatio="xMidYMid meet">
<metadata>
Created by potrace 1.11, written by Peter Selinger 2001-2013
</metadata>
<g transform="translate(0.000000,693.000000) scale(0.100000,-0.100000)"
fill="#000000" stroke="none">
<path d="M6178 6909 c-8 -4 -25 -10 -39 -13 -20 -4 -159 -52 -209 -73 -8 -3
-23 -8 -33 -10 -10 -1 -31 -10 -47 -18 -17 -9 -32 -15 -35 -15 -3 0 -7 -1 -10
-1 -3 -1 -8 -2 -12 -3 -19 -5 -60 -18 -78 -26 -21 -9 -286 -100 -345 -119 -65
-20 -213 -35 -234 -23 -5 3 -26 6 -46 7 -37 2 -148 21 -205 35 -30 7 -265 5
-295 -2 -142 -36 -248 -87 -370 -179 -209 -156 -316 -306 -355 -499 -2 -8 -4
-15 -5 -15 -1 0 -3 -15 -6 -34 -2 -19 -8 -39 -13 -45 -5 -6 -5 -20 -1 -31 4
-11 4 -29 1 -40 -7 -20 -6 -118 1 -145 12 -47 59 -84 98 -77 20 4 58 26 45 27
-5 0 -3 5 5 10 8 5 16 14 16 20 1 5 2 11 3 13 2 1 5 13 7 27 2 13 10 28 17 32
9 6 9 8 0 8 -7 0 -10 9 -6 23 2 12 5 30 5 40 -1 11 4 15 11 10 9 -5 9 -3 0 8
-8 9 -9 19 -3 25 5 5 11 20 13 34 7 45 30 110 39 110 5 0 7 4 3 9 -3 5 1 16 9
24 8 8 13 17 10 19 -2 3 7 17 20 31 14 15 22 27 19 27 -3 0 4 9 16 19 12 11
23 23 24 28 1 4 8 7 14 7 7 -1 10 2 7 8 -8 12 58 78 71 71 5 -4 7 -3 3 2 -8 8
45 65 60 65 6 0 12 5 14 11 2 5 11 11 20 13 10 1 21 6 25 11 4 4 2 5 -6 0 -9
-5 -12 -4 -7 3 4 7 14 12 22 12 8 0 14 5 14 12 0 6 3 8 7 5 3 -4 11 0 17 8 6
7 18 15 26 17 8 2 21 9 29 16 7 7 20 11 28 8 8 -3 11 -1 8 4 -6 9 8 14 28 11
4 0 7 3 7 7 0 4 8 8 18 9 9 1 36 5 60 8 29 4 49 2 60 -7 13 -11 14 -11 8 0 -6
10 1 12 31 9 52 -7 93 -18 93 -26 0 -4 9 -7 19 -8 11 -1 41 -9 68 -18 48 -17
63 -21 117 -31 16 -2 34 -8 39 -11 6 -3 7 -1 3 5 -5 9 -1 10 16 3 13 -4 45 -6
71 -4 38 3 47 1 41 -9 -4 -7 2 -4 14 6 13 11 22 14 22 7 0 -9 5 -9 20 -1 11 6
24 9 29 6 4 -3 17 1 27 8 12 10 24 11 36 5 10 -5 18 -5 20 1 2 5 19 11 38 13
19 2 42 7 50 10 8 3 24 7 35 9 11 2 23 8 27 13 5 6 8 5 8 -3 0 -10 4 -10 15 2
9 8 22 13 29 10 8 -3 17 0 21 5 3 6 11 9 16 6 5 -4 9 -1 9 6 0 8 5 7 17 -2 14
-12 16 -12 8 0 -6 11 -4 13 8 8 10 -3 17 -3 17 1 0 4 11 12 25 19 14 6 23 7
19 2 -3 -5 2 -6 10 -3 9 3 16 9 16 13 0 4 9 8 20 9 11 1 29 3 39 4 11 1 17 6
15 10 -5 7 18 12 39 9 4 0 7 4 7 10 0 5 4 8 9 4 5 -3 12 -1 16 5 12 19 33 11
28 -10 -3 -11 -10 -20 -16 -20 -6 0 -8 -3 -4 -6 7 -7 -111 -237 -124 -242 -5
-2 -9 -10 -9 -19 0 -8 -6 -20 -12 -28 -7 -7 -32 -40 -56 -73 -39 -54 -187
-204 -257 -261 -99 -78 -333 -208 -390 -216 -5 -1 -23 -7 -40 -15 -16 -7 -39
-16 -50 -21 -11 -5 -47 -17 -80 -27 -55 -17 -97 -18 -464 -16 l-405 2 -19 -25
c-35 -44 -17 -173 24 -173 9 0 19 -3 22 -6 6 -7 120 -13 280 -17 42 -1 77 -6
77 -10 0 -6 5 -5 13 0 14 11 57 11 74 0 6 -4 15 -3 18 3 5 8 11 8 20 0 9 -8
15 -8 20 0 4 7 13 7 27 -1 15 -8 19 -8 14 0 -9 14 0 14 26 0 15 -8 19 -8 14 0
-9 13 4 14 24 2 8 -6 19 -7 24 -3 17 10 145 9 139 -2 -4 -5 -1 -6 8 -1 20 13
51 14 73 3 12 -7 16 -7 12 0 -3 6 13 13 39 16 24 4 47 11 50 17 9 14 27 11 19
-3 -4 -7 2 -5 13 5 11 9 23 14 26 10 4 -3 7 -1 7 5 0 7 3 11 8 11 17 -4 72 14
72 23 0 6 7 8 15 4 8 -3 15 0 15 6 0 6 3 8 6 5 4 -3 16 -1 28 5 11 7 23 13 26
13 3 0 15 6 28 13 12 7 22 9 22 5 0 -4 4 -2 9 5 4 7 15 14 23 16 9 1 23 8 32
15 9 7 16 10 16 5 0 -5 4 -3 9 4 4 7 17 14 29 15 11 0 18 5 16 9 -3 4 2 8 10
8 9 0 16 5 16 10 0 6 6 10 14 10 8 0 16 5 18 10 2 6 13 12 25 13 12 0 20 4 18
8 -3 3 7 11 20 17 14 7 25 16 25 22 0 6 5 8 10 5 6 -3 10 -1 10 6 0 7 3 10 6
6 3 -3 16 5 29 18 12 14 24 22 27 20 3 -3 13 6 22 20 10 16 23 24 32 21 8 -3
13 0 11 7 -1 7 6 11 15 11 11 -1 15 5 13 17 -2 10 0 18 4 16 4 -1 30 22 58 51
29 28 49 52 45 52 -4 0 2 7 12 15 11 8 17 15 13 15 -5 0 -2 6 5 14 7 8 17 11
22 8 5 -3 6 0 3 5 -4 6 5 23 18 39 14 16 25 35 25 42 0 6 5 12 10 12 6 0 10 7
10 15 0 8 5 15 11 15 5 0 8 4 5 9 -3 5 1 12 10 15 8 3 12 10 9 16 -3 6 1 13
10 16 9 4 14 12 11 19 -3 8 2 16 10 19 9 3 13 10 10 15 -3 5 1 14 9 21 8 7 12
16 9 21 -3 5 -1 9 3 9 9 0 43 72 43 91 0 5 5 7 12 3 7 -5 8 -3 4 5 -5 7 0 21
11 33 10 11 17 23 16 27 -5 12 9 41 17 36 4 -3 6 5 2 17 -3 15 -2 19 7 14 6
-4 11 -4 9 1 -4 16 14 73 23 73 6 0 8 4 4 9 -3 5 -1 12 5 16 6 4 8 11 5 16 -4
5 -1 9 5 9 6 0 8 5 5 10 -3 6 -2 10 4 10 6 0 8 7 5 15 -4 8 -1 15 5 15 6 0 10
3 9 8 -1 8 7 30 27 76 7 16 11 38 9 49 -2 11 2 27 9 36 9 12 9 13 0 7 -9 -5
-13 0 -13 17 0 43 -77 96 -112 76z"/>
<path d="M3155 6327 c-57 -14 -104 -53 -127 -105 -25 -55 -28 -74 -32 -187 -3
-89 -2 -89 30 -121 17 -18 35 -30 38 -27 3 4 6 0 6 -7 0 -7 3 -11 6 -7 9 8
108 -88 142 -138 30 -43 67 -131 77 -180 3 -16 8 -41 11 -55 3 -14 7 -86 8
-160 3 -145 18 -203 57 -215 11 -4 17 -10 15 -13 -6 -11 58 -6 80 6 11 5 22
10 27 11 4 1 7 4 8 9 0 4 6 13 12 20 6 8 12 23 14 33 4 28 11 63 13 69 6 14 5
37 -3 53 -4 10 -4 17 2 17 7 0 7 9 1 25 -6 15 -6 27 0 30 6 3 6 15 0 30 -5 14
-6 25 -1 25 5 0 8 8 6 18 -2 9 -4 17 -5 17 -1 0 -4 32 -7 70 -2 39 -5 78 -6
88 -1 9 -5 17 -9 17 -4 0 -7 3 -6 8 9 34 -88 205 -161 282 -9 9 -31 33 -50 53
-54 57 -47 126 11 112 23 -6 37 -16 109 -78 55 -47 106 -139 125 -222 42 -191
50 -256 59 -470 3 -66 10 -132 16 -146 20 -50 106 -72 142 -37 9 10 14 18 11
18 -4 0 -1 6 5 14 7 8 13 51 14 95 1 45 6 81 10 81 4 0 3 8 -2 18 -6 11 -6 24
-1 32 5 8 5 19 0 25 -10 12 -7 46 6 67 4 6 3 8 -3 5 -7 -4 -10 15 -9 53 0 33
-1 60 -4 60 -3 0 -6 19 -7 43 -3 69 -18 149 -34 178 -5 10 -8 22 -7 26 5 22
-101 234 -144 287 -56 70 -88 107 -88 101 0 -3 -21 10 -46 30 -26 19 -53 35
-60 35 -8 0 -14 4 -14 8 0 12 -187 11 -235 -1z"/>
<path d="M4800 6269 c-25 -4 -79 -19 -120 -34 -72 -26 -240 -103 -250 -115 -3
-4 -30 -25 -60 -47 -51 -38 -102 -86 -180 -173 -65 -72 -82 -163 -38 -207 29
-29 94 -39 102 -16 3 8 10 11 16 8 5 -3 10 -1 10 5 0 5 13 18 30 29 16 10 27
21 23 24 -3 4 -2 7 4 7 5 0 21 10 35 23 35 31 79 62 89 62 4 0 11 4 16 9 5 5
2 6 -7 2 -8 -4 -6 -1 4 8 10 8 22 13 26 11 5 -3 11 2 14 11 3 8 14 14 23 12
10 -2 18 3 18 12 0 9 8 14 19 12 11 -2 15 1 11 7 -3 6 1 11 9 11 9 0 16 4 16
10 0 6 3 10 8 9 14 -2 52 13 52 21 0 4 11 11 25 14 14 4 25 11 25 16 0 5 7 7
15 4 8 -4 15 -1 15 5 0 6 9 11 20 11 11 0 23 7 26 15 4 8 10 12 15 9 6 -3 16
0 24 6 8 7 15 9 15 4 0 -5 5 -1 11 9 5 9 18 17 27 17 21 0 52 34 52 56 0 9 5
12 13 8 8 -6 8 -3 -1 9 -8 9 -11 20 -8 25 9 16 -37 73 -69 86 -19 8 -47 9 -75
5z"/>
<path d="M4809 5229 c-7 -4 -16 -6 -20 -4 -3 3 -14 -4 -23 -14 -18 -20 -21
-55 -11 -141 16 -142 18 -200 19 -400 1 -197 -5 -315 -19 -380 -3 -14 -8 -41
-11 -60 -14 -100 -155 -437 -177 -423 -5 3 -7 2 -4 -4 6 -10 -22 -54 -53 -84
-22 -22 -46 -29 -59 -16 -6 6 -11 8 -11 3 0 -4 -10 5 -23 21 -25 30 -78 138
-75 151 1 4 -3 17 -10 30 -7 12 -10 22 -7 22 3 0 1 9 -5 19 -5 11 -12 35 -14
53 -3 18 -5 33 -6 33 -2 0 -9 38 -13 75 -2 20 -6 41 -11 48 -4 6 -2 20 4 31 6
12 6 22 1 26 -6 3 -9 59 -9 125 1 74 5 117 11 113 6 -3 7 -1 3 5 -11 18 -16
52 -8 52 4 0 8 32 10 72 1 44 7 75 15 80 9 6 9 8 -1 8 -7 0 -10 4 -7 10 5 8
16 87 18 128 0 6 3 12 7 12 4 0 7 10 7 23 1 59 4 78 11 73 5 -3 9 1 9 9 0 8
-4 15 -8 15 -5 0 -5 10 -1 23 7 18 8 74 3 110 -2 17 -42 47 -62 47 -19 0 -106
-37 -119 -50 -6 -7 -155 -74 -195 -88 -46 -17 -102 -32 -193 -51 -45 -10 -85
-21 -88 -23 -3 -3 -7 -25 -10 -49 -3 -24 -7 -55 -9 -69 -11 -57 -18 -204 -18
-335 0 -186 12 -308 43 -440 6 -27 13 -57 15 -65 5 -19 44 -140 52 -160 4 -8
7 -17 8 -20 24 -68 128 -289 158 -332 10 -16 16 -28 12 -28 -3 0 3 -10 15 -22
11 -12 20 -27 20 -34 0 -7 6 -19 13 -26 7 -7 26 -33 41 -58 38 -63 50 -82 59
-94 17 -24 69 -92 82 -108 8 -10 12 -18 10 -18 -3 0 10 -14 30 -31 19 -17 32
-36 28 -42 -3 -5 -2 -7 4 -4 5 4 19 -1 29 -11 37 -33 90 -51 135 -46 24 3 46
10 47 15 2 5 13 9 23 9 11 0 17 4 14 10 -3 6 1 10 10 10 8 0 18 7 21 15 4 8
10 12 15 9 5 -3 9 1 9 8 0 19 39 50 52 42 7 -5 8 -2 3 5 -5 8 9 29 39 57 26
24 44 44 41 44 -3 0 0 6 7 14 7 8 16 12 21 9 4 -2 7 2 7 10 0 8 14 29 30 47
17 18 30 36 30 41 0 5 7 12 15 15 14 6 31 41 27 57 -1 5 2 6 7 3 8 -5 26 25
19 32 -2 2 5 8 15 13 9 6 15 14 12 20 -4 5 -1 9 6 9 7 0 10 3 6 6 -3 4 0 13 8
21 8 8 15 23 15 32 0 10 7 24 15 31 8 7 15 16 15 21 0 5 9 18 21 30 25 25 43
14 70 -46 10 -22 24 -49 31 -60 28 -45 43 -70 43 -75 3 -31 237 -353 272 -373
7 -4 13 -15 13 -22 0 -8 7 -15 15 -15 8 0 15 -4 15 -10 0 -5 5 -10 12 -10 6 0
19 -6 27 -14 9 -8 28 -17 43 -20 15 -2 33 -8 39 -12 7 -4 9 -3 5 4 -4 6 1 10
11 10 26 -1 44 5 65 22 10 8 24 15 31 15 7 0 12 7 12 15 0 8 11 20 25 27 14 7
21 13 17 13 -12 0 90 100 102 100 5 0 13 5 17 12 4 7 3 8 -4 4 -7 -4 -12 -2
-12 3 0 6 8 11 17 11 9 0 14 3 11 6 -8 7 42 60 53 56 5 -1 8 1 8 5 -3 20 2 34
11 28 6 -3 10 1 10 10 0 8 7 18 15 21 8 4 13 10 10 14 -3 4 2 11 11 14 8 3 12
10 9 16 -3 5 1 10 10 10 9 0 14 4 11 9 -3 5 1 14 9 21 8 7 15 17 15 22 0 14
27 38 34 30 4 -3 4 1 1 10 -4 9 0 18 10 22 9 3 13 10 10 16 -3 5 -2 10 3 10 5
0 17 16 26 35 10 20 21 33 26 30 6 -3 7 1 4 9 -3 9 -2 16 3 16 5 0 15 16 22
35 7 19 17 35 22 35 6 0 8 4 4 9 -3 5 2 16 10 25 9 8 16 18 15 21 -1 20 1 25
9 20 6 -3 8 4 6 15 -2 11 1 20 7 20 6 0 8 3 5 6 -3 4 -1 16 5 28 7 11 11 24
10 29 -1 4 2 7 8 7 6 0 9 3 9 8 -3 19 2 33 11 27 5 -3 7 0 4 8 -2 7 1 27 7 43
15 36 16 39 18 65 0 11 5 18 10 15 5 -4 8 2 7 11 -2 10 4 24 13 31 9 8 10 10
2 6 -10 -5 -11 -1 -5 17 4 13 7 30 7 37 0 6 4 12 9 12 4 0 7 3 6 8 -1 4 2 27
6 52 5 25 8 48 7 53 0 4 3 7 8 7 4 0 7 11 6 25 -2 14 0 27 5 30 4 3 6 14 3 25
-3 13 0 20 8 20 9 0 10 3 4 8 -5 4 -11 23 -12 42 -5 71 -8 90 -15 90 -5 0 -8
8 -9 18 0 9 -9 31 -20 47 -11 17 -22 38 -25 48 -4 9 -11 17 -17 17 -6 0 -8 2
-5 5 4 5 -236 253 -273 283 -9 7 -35 15 -57 18 -35 5 -45 2 -66 -19 -42 -42
-55 -111 -56 -285 0 -86 -2 -175 -4 -197 -12 -113 -18 -156 -32 -215 -35 -154
-111 -347 -156 -396 -23 -24 -69 -54 -85 -54 -19 0 -61 49 -87 102 -15 32 -27
60 -26 63 0 3 -6 18 -13 33 -19 37 -58 185 -60 227 -1 19 -4 35 -7 35 -7 0 -7
4 -13 172 -3 69 -8 131 -11 137 -4 5 -3 12 2 15 4 2 7 22 6 43 0 21 3 43 8 50
5 7 5 14 -1 17 -5 4 -8 16 -6 29 2 12 7 63 10 112 3 50 7 106 9 125 3 19 6 52
7 73 2 21 6 40 10 42 3 3 5 19 3 36 -2 18 2 39 9 47 6 9 7 13 1 9 -7 -4 -11 6
-11 26 -1 42 -6 58 -23 83 -30 42 -37 43 -326 49 -61 1 -116 5 -122 9 -6 3
-13 2 -16 -3 -3 -5 -21 -6 -40 -1 -19 4 -40 4 -47 -1z"/>
<path d="M2057 5164 c-1 -1 -23 -4 -49 -6 -26 -3 -59 -13 -73 -22 -28 -19 -29
-37 -6 -116 6 -19 13 -48 15 -65 3 -16 8 -41 11 -55 3 -14 7 -36 10 -50 2 -14
6 -41 10 -60 18 -101 32 -267 36 -443 2 -116 -4 -154 -17 -103 -3 14 -10 26
-15 26 -5 0 -9 5 -9 12 0 13 -131 256 -162 301 -11 15 -16 27 -11 27 4 0 3 4
-2 8 -6 4 -33 43 -60 87 -48 78 -133 199 -178 251 -39 47 -159 164 -167 164
-10 0 -195 -134 -255 -185 -58 -50 -167 -157 -195 -193 -58 -76 -110 -149
-130 -186 -40 -73 -90 -174 -90 -183 0 -5 -6 -15 -12 -21 -7 -7 -13 -16 -13
-20 0 -4 -13 -38 -27 -77 -30 -79 -49 -143 -62 -210 -11 -54 -16 -80 -21 -105
-3 -14 -8 -45 -10 -70 -3 -25 -8 -67 -12 -95 -8 -65 -8 -453 0 -570 6 -79 9
-101 21 -150 3 -16 28 -59 40 -70 22 -21 66 -45 81 -45 9 0 14 -3 11 -8 -2 -4
12 -8 32 -9 56 -3 82 -7 82 -13 0 -3 28 -5 63 -6 34 -1 89 -3 123 -4 33 -2 66
0 72 4 7 4 12 2 12 -5 0 -8 4 -8 15 1 12 10 15 10 15 -1 0 -10 3 -10 12 -1 16
16 31 15 22 0 -5 -9 -2 -9 9 1 9 7 17 10 17 6 0 -4 7 -2 15 5 8 6 19 9 25 5 5
-3 10 -1 10 4 0 6 4 10 9 9 5 -2 18 8 29 20 16 19 20 34 17 70 -4 47 -12 97
-15 97 -3 0 -10 41 -13 72 -1 18 -6 33 -10 33 -5 0 -7 15 -6 33 2 18 -1 39 -6
47 -5 8 -10 21 -11 30 -1 8 -4 31 -8 50 -11 66 -18 115 -20 145 -2 17 -7 47
-11 67 -4 20 -8 65 -10 100 -2 35 -4 63 -5 63 -2 0 -3 21 -5 48 -1 26 -5 50
-8 54 -4 3 -2 12 4 20 8 9 8 13 0 13 -7 0 -8 8 -2 23 6 14 6 30 0 38 -12 20
-11 32 3 23 7 -5 8 -3 2 7 -13 21 -14 39 -1 39 8 0 8 3 2 8 -10 7 -15 122 -5
122 3 0 5 42 5 94 -1 52 2 93 5 91 3 -2 5 30 5 71 l0 73 20 -22 c27 -30 163
-231 172 -254 4 -10 9 -20 13 -23 9 -7 101 -172 103 -185 1 -5 8 -16 15 -23 7
-8 10 -18 7 -23 -4 -5 -2 -9 3 -9 7 0 55 -95 67 -130 0 -3 9 -22 18 -44 9 -21
17 -41 17 -43 0 -3 7 -21 16 -41 24 -56 58 -143 59 -152 0 -3 7 -16 15 -30 7
-14 13 -27 13 -30 -1 -6 4 -23 14 -47 3 -10 7 -22 8 -28 2 -5 13 -39 25 -75
12 -36 23 -69 25 -75 1 -5 5 -19 9 -30 19 -51 35 -104 47 -157 15 -68 49 -145
67 -153 12 -5 22 -13 22 -16 0 -4 18 -5 40 -4 22 2 38 0 35 -4 -2 -4 16 -5 41
-1 24 4 47 3 50 -2 3 -5 12 -4 19 2 9 8 15 8 20 0 3 -6 11 -8 16 -4 19 11 59
11 59 0 0 -7 3 -8 8 -1 4 6 22 10 40 10 17 -1 32 2 32 6 0 4 9 6 20 4 11 -2
18 -1 16 4 -3 4 4 13 14 21 10 8 17 17 14 22 -3 4 0 8 6 8 6 0 8 5 5 10 -3 6
-1 10 5 10 6 0 8 5 5 10 -3 6 -1 10 5 10 6 0 9 4 5 9 -3 5 -1 12 4 16 5 3 8
14 6 25 -2 11 1 20 7 20 5 0 8 7 4 15 -3 8 -1 15 3 15 5 0 7 9 4 20 -3 11 0
20 6 20 5 0 8 7 5 15 -4 8 -1 22 5 29 8 10 9 16 1 21 -6 4 -7 13 -1 23 4 9 6
23 3 31 -3 9 0 11 8 6 10 -6 11 -4 4 6 -11 18 -14 39 -5 39 3 0 6 16 5 35 -1
19 2 38 7 41 5 3 5 13 -1 23 -5 10 -6 21 -3 25 6 6 12 82 14 193 0 29 5 55 10
59 5 3 6 11 2 17 -11 18 -11 57 0 57 5 0 5 6 -2 13 -6 8 -8 17 -4 21 11 11 10
96 -2 96 -7 0 -7 3 0 8 12 8 14 211 2 229 -4 6 -3 14 1 17 10 6 9 42 0 52 -4
3 -3 17 2 30 5 13 6 24 2 24 -4 0 -8 9 -8 20 0 11 3 20 6 20 4 0 6 10 4 23 -1
12 -3 22 -4 22 -8 0 -4 82 4 87 8 6 8 8 0 8 -7 0 -12 25 -13 68 -6 201 -20
432 -27 443 -3 5 1 9 8 9 8 0 9 3 3 8 -5 4 -11 25 -11 47 -4 108 -32 149 -109
161 -5 1 -12 3 -15 4 -6 2 -260 6 -263 4z"/>
<path d="M2723 5128 c-25 -35 -76 -181 -87 -252 -4 -21 -8 -41 -11 -45 -2 -4
-7 -30 -11 -57 -3 -27 -8 -58 -11 -69 -2 -11 -6 -39 -8 -61 -2 -23 -7 -55 -10
-70 -3 -16 -8 -56 -11 -89 -3 -33 -7 -73 -9 -90 -25 -184 -25 -934 0 -1195 12
-138 15 -157 24 -187 5 -17 7 -34 4 -37 -3 -3 6 -19 21 -36 14 -17 26 -29 26
-26 0 2 12 -1 26 -9 15 -7 32 -11 40 -8 7 2 19 1 26 -3 16 -11 36 -11 71 -2
15 3 27 4 27 0 0 -4 72 -7 160 -7 101 0 160 -3 160 -10 0 -7 3 -7 8 0 11 16
64 18 73 3 5 -7 9 -8 9 -2 0 6 12 10 28 9 15 -1 33 3 41 9 11 8 15 8 18 -1 3
-9 10 -10 24 -3 10 6 19 7 19 3 0 -11 41 -9 58 1 7 4 19 3 26 -3 7 -6 16 -8
20 -4 4 4 29 9 56 11 58 4 118 26 126 47 4 8 9 13 13 10 4 -2 4 21 0 52 -4 31
-6 60 -3 65 3 4 0 8 -5 8 -6 0 -11 13 -11 28 0 16 -3 32 -7 36 -4 3 -8 14 -9
24 -2 25 -73 231 -96 277 -38 80 -67 101 -110 79 -15 -8 -28 -18 -28 -22 0 -6
-69 -80 -110 -116 -94 -84 -240 -61 -318 50 -12 17 -19 34 -15 38 3 3 1 6 -5
6 -6 0 -9 9 -7 20 2 11 0 20 -5 20 -5 0 -7 43 -5 98 6 123 9 152 15 152 3 0 6
8 7 18 3 41 9 58 23 70 10 9 10 11 1 7 -9 -5 -7 1 4 19 21 31 61 53 90 50 43
-5 69 -14 77 -26 4 -7 8 -10 8 -6 0 4 17 1 38 -7 48 -18 102 -26 102 -14 0 5
3 8 8 8 20 -3 32 3 32 17 0 10 6 14 14 11 11 -4 13 -1 9 10 -4 11 -2 14 5 9 8
-4 10 -2 6 7 -3 8 0 18 5 22 6 3 9 11 6 16 -4 5 -1 9 6 9 7 0 9 3 6 7 -4 3 1
12 11 20 9 8 11 12 5 8 -15 -7 -18 11 -4 19 5 3 12 23 16 43 4 21 9 42 12 47
6 9 10 49 17 158 5 89 -15 125 -76 135 -104 18 -216 -3 -312 -59 -67 -40 -105
-47 -120 -22 -6 10 -11 22 -12 27 -1 4 -3 8 -4 10 -7 7 -4 127 3 127 4 0 6 4
2 9 -7 12 15 61 27 61 6 0 8 5 6 12 -2 6 15 31 37 54 33 34 48 42 73 40 18 -1
28 2 25 8 -4 5 1 7 10 3 9 -3 18 -1 21 6 2 7 5 8 5 2 1 -5 23 -9 51 -8 31 1
50 -3 50 -9 0 -6 3 -9 6 -5 7 7 66 -15 90 -35 9 -7 29 -25 45 -40 16 -14 29
-24 29 -21 0 3 6 1 13 -6 12 -9 81 -12 72 -2 -3 2 2 16 11 32 8 16 12 29 8 29
-4 0 -1 6 5 13 6 8 8 17 4 20 -3 4 0 7 7 7 7 0 10 3 7 7 -4 3 -1 13 6 21 10
13 9 14 -2 8 -9 -6 -8 -1 3 16 9 14 13 28 9 32 -5 4 -3 7 2 6 20 -4 30 1 17 8
-7 5 -10 16 -6 25 3 9 9 15 13 13 3 -2 6 12 5 32 -3 44 -24 61 -72 57 -20 -1
-41 -1 -45 2 -4 3 -36 6 -70 8 -101 6 -327 59 -327 77 0 5 -4 6 -10 3 -15 -9
-250 101 -250 118 0 4 -4 6 -9 3 -5 -3 -14 1 -21 9 -15 18 -44 19 -57 3z"/>
<path d="M4697 2874 c-1 -1 -34 -4 -74 -7 -43 -4 -83 -13 -98 -23 -28 -18 -58
-67 -48 -78 4 -3 1 -6 -6 -6 -7 0 -10 -4 -7 -9 3 -4 -1 -39 -10 -77 -8 -38
-17 -85 -20 -104 -2 -19 -7 -46 -10 -60 -9 -47 -23 -135 -29 -180 -3 -25 -7
-62 -10 -82 -25 -188 -27 -208 -40 -428 -10 -153 -10 -692 -1 -850 9 -151 14
-216 20 -265 2 -22 7 -62 10 -90 4 -27 8 -61 11 -75 3 -14 7 -41 10 -60 2 -19
6 -44 8 -55 7 -33 19 -105 18 -107 -2 -4 45 -136 63 -179 8 -19 22 -41 30 -48
22 -18 68 -20 93 -4 12 8 23 14 25 13 4 -2 56 18 93 35 16 7 33 11 39 8 5 -3
6 -1 3 4 -6 10 27 27 46 24 4 -1 7 4 7 10 0 5 5 7 10 4 6 -3 13 1 16 9 3 9 10
14 14 11 4 -3 11 2 14 11 3 9 12 14 18 12 7 -3 21 5 31 16 10 12 16 14 12 6
-4 -10 -2 -9 8 2 8 10 19 18 25 18 5 0 13 8 16 17 6 14 9 15 15 4 6 -9 10 -7
14 9 3 12 9 20 14 17 4 -3 14 1 21 9 7 8 10 14 6 14 -4 0 3 9 16 20 13 11 19
20 14 20 -5 0 -3 4 5 9 15 10 24 109 11 126 -4 6 -13 28 -19 50 -7 22 -15 47
-19 55 -5 14 -11 39 -14 68 -1 6 -4 12 -8 12 -3 0 -6 8 -7 18 -1 9 -4 31 -7
47 -4 17 -9 50 -12 75 -3 24 -7 47 -10 51 -2 4 2 10 8 12 7 3 8 6 2 6 -6 1 -9
24 -6 64 5 104 7 112 17 119 6 5 5 8 -3 8 -7 0 -10 4 -7 10 7 11 16 47 17 68
1 6 5 12 10 12 4 0 7 3 6 8 -5 15 38 92 55 98 9 3 15 10 12 15 -4 5 1 9 9 9 9
0 16 5 16 11 0 5 4 8 8 5 5 -3 18 2 28 12 10 10 30 17 44 17 14 -1 32 2 40 6
8 3 28 -1 43 -10 23 -13 34 -34 59 -106 16 -49 34 -94 39 -99 5 -6 9 -18 9
-28 0 -10 3 -18 8 -18 4 0 18 -20 32 -45 14 -25 30 -45 37 -45 7 0 13 -4 13
-9 0 -17 73 -52 111 -54 21 -2 35 2 32 7 -4 5 1 7 9 3 11 -4 18 1 22 16 3 12
8 18 11 15 4 -3 18 5 31 17 15 14 32 21 41 18 11 -4 14 -2 9 5 -8 13 38 65 48
55 3 -4 6 3 6 15 0 13 6 22 16 22 8 0 12 4 9 10 -3 5 -1 10 4 10 6 0 11 7 11
15 0 9 7 18 15 21 8 4 12 10 9 15 -3 5 2 12 10 15 9 3 14 10 11 14 -3 5 0 14
7 22 24 25 29 143 8 184 -18 35 -62 98 -73 102 -4 2 -5 8 -1 13 3 5 1 9 -4 9
-5 0 -29 26 -53 58 -24 31 -47 59 -51 60 -5 2 -8 8 -8 12 0 5 -11 21 -25 36
-14 15 -23 29 -21 32 3 2 -2 11 -10 19 -8 9 -13 26 -10 41 2 15 5 31 5 35 1 5
5 5 11 2 5 -3 7 0 5 8 -3 7 3 24 15 37 11 13 20 27 20 32 0 5 5 6 10 3 6 -3
10 0 10 8 0 8 7 18 16 21 8 3 12 10 9 16 -3 5 1 10 10 10 9 0 14 4 10 10 -3 5
6 17 20 26 14 9 25 20 25 25 0 9 21 37 53 71 9 10 17 21 17 26 1 8 24 40 53
74 9 12 17 28 17 36 0 9 6 12 16 8 8 -3 12 -2 9 3 -3 5 8 33 25 61 16 28 30
55 30 61 0 5 6 12 14 15 9 3 12 12 9 21 -4 11 -2 14 5 9 8 -5 10 -2 6 8 -3 9
-1 16 5 16 6 0 10 3 10 8 -1 4 0 10 1 15 1 4 3 13 4 20 1 6 7 11 12 10 6 -1
10 8 9 20 -1 12 2 24 6 27 5 3 11 17 13 30 2 14 5 27 6 30 2 3 2 8 1 13 0 4 2
7 7 7 17 0 20 151 3 184 -27 50 -88 57 -391 45 -141 -5 -174 -29 -201 -145
-14 -63 -15 -66 -22 -84 -3 -8 -18 -49 -33 -90 -39 -105 -139 -293 -166 -311
-5 -3 -9 -9 -8 -13 3 -14 -225 -315 -271 -359 -10 -10 -19 -21 -19 -25 0 -4
-14 -16 -31 -26 -31 -18 -32 -18 -42 0 -6 11 -12 29 -13 42 0 12 -4 25 -7 28
-4 4 -2 15 3 25 7 11 7 20 0 24 -5 3 -6 15 -1 28 5 14 5 30 0 40 -6 9 -6 17
-2 17 4 0 8 24 8 53 0 28 2 57 4 62 6 11 11 49 12 78 0 9 4 15 8 12 5 -2 7 9
5 25 -2 17 0 30 4 30 4 0 9 8 10 18 2 23 10 57 13 57 1 0 3 9 5 20 1 11 5 31
9 45 3 14 8 32 10 40 2 8 4 16 5 18 2 1 3 5 4 10 1 4 5 13 9 20 5 6 6 12 2 12
-3 0 1 15 8 33 8 17 12 38 10 45 -3 6 -1 12 4 12 10 0 11 7 17 120 7 133 -9
143 -242 144 -90 1 -164 0 -165 0z"/>
<path d="M2660 2819 c-19 -11 -48 -34 -65 -50 -61 -58 -140 -245 -195 -459
-12 -47 -24 -92 -27 -100 -3 -8 -7 -22 -8 -30 -12 -77 -18 -106 -23 -110 -4
-3 -8 -23 -10 -45 -2 -21 -7 -44 -12 -51 -6 -6 -7 -13 -4 -17 3 -3 1 -29 -5
-59 -6 -29 -13 -69 -16 -88 -3 -19 -8 -48 -11 -65 -7 -38 -14 -89 -19 -139 -3
-21 -7 -55 -10 -75 -22 -155 -26 -901 -5 -901 3 0 5 -12 6 -27 0 -30 11 -124
18 -159 3 -12 7 -38 10 -57 3 -20 13 -55 22 -79 8 -24 18 -51 21 -60 3 -10 9
-18 14 -18 5 0 9 -5 9 -10 0 -16 82 -90 107 -96 13 -3 21 -9 19 -13 -3 -4 3
-8 12 -9 9 0 44 -12 77 -26 32 -14 63 -22 67 -20 4 3 8 1 8 -5 0 -5 8 -8 18
-6 9 1 23 -2 30 -8 8 -6 12 -5 12 4 0 11 2 11 10 -1 5 -8 10 -11 10 -6 0 5 8
2 17 -5 9 -8 14 -9 10 -3 -5 8 12 12 56 13 103 3 127 6 127 14 0 5 5 5 10 2 6
-3 10 -1 10 5 0 7 8 9 21 5 15 -5 19 -4 15 4 -6 10 13 16 37 12 5 -1 6 3 2 9
-6 9 7 14 28 11 4 0 7 4 7 11 0 6 3 9 6 5 4 -3 13 1 21 9 8 8 19 11 25 8 7 -4
8 -2 4 4 -4 6 7 25 23 42 17 19 28 39 26 51 -2 10 -1 19 3 19 4 0 8 14 9 32 0
18 6 34 11 36 6 2 8 10 6 17 -3 8 -2 20 2 26 4 7 9 29 11 48 4 44 11 96 13 96
2 0 6 30 11 98 2 21 7 41 12 44 4 2 3 11 -4 19 -6 8 -7 14 -2 14 6 0 10 17 11
38 3 105 9 193 15 199 4 3 2 12 -4 20 -6 7 -8 13 -3 13 5 0 9 44 8 97 -1 57 4
104 10 112 8 11 8 13 -1 8 -9 -6 -11 7 -10 48 2 30 -1 55 -6 55 -5 0 -4 6 2
13 6 8 9 16 6 19 -3 3 -7 51 -10 108 -3 57 -7 105 -10 108 -3 3 1 12 8 20 7
10 8 13 1 9 -7 -4 -14 2 -17 13 -3 11 -1 22 3 25 5 3 5 18 0 33 -5 15 -11 52
-14 82 -9 97 -17 153 -26 176 -6 15 -5 26 1 30 8 5 8 8 1 13 -6 4 -12 23 -14
44 -1 20 -5 37 -8 37 -3 0 -6 15 -8 33 -3 46 -6 60 -15 75 -5 6 -5 17 -2 22 3
6 2 10 -2 10 -5 0 -9 8 -10 18 0 9 -4 28 -8 42 -3 14 -7 34 -8 45 -1 11 -5 22
-9 26 -4 3 -9 18 -12 35 -3 29 -10 50 -26 89 -9 21 -24 66 -25 75 0 8 -33 84
-62 147 -13 29 -24 55 -23 59 1 4 -2 10 -7 13 -5 3 -21 26 -35 51 -49 84 -189
126 -268 79z m138 -591 c19 -37 35 -82 33 -92 -1 -4 3 -13 8 -20 5 -6 14 -38
20 -71 6 -33 13 -71 16 -85 3 -14 8 -43 11 -65 3 -22 7 -51 9 -65 3 -14 7 -56
11 -95 3 -38 7 -88 10 -110 25 -249 22 -711 -5 -853 -22 -114 -70 -162 -166
-167 -92 -4 -144 46 -151 150 -3 38 -3 42 -5 48 -11 30 -14 87 -5 87 7 0 8 3
1 8 -6 4 -11 27 -13 52 -5 107 -3 423 3 515 4 55 7 109 7 120 -1 10 4 26 11
34 10 12 9 13 -2 7 -10 -6 -12 -4 -8 10 10 33 23 138 26 202 1 13 5 21 9 18 4
-2 6 11 4 31 -4 28 -2 34 9 27 12 -7 12 -5 0 9 -7 10 -9 17 -3 17 6 0 9 8 7
18 -1 9 0 22 4 27 6 10 8 20 15 65 2 14 8 38 15 53 6 16 9 33 5 38 -3 5 0 9 6
9 6 0 8 5 5 10 -3 6 -1 10 5 10 6 0 8 5 5 10 -4 6 -1 17 5 25 7 8 9 15 5 15
-4 0 4 11 19 25 31 28 53 23 74 -17z"/>
<path d="M1955 2793 c-78 -14 -112 -52 -93 -103 5 -12 11 -57 13 -99 3 -42 7
-85 9 -96 2 -11 1 -24 -2 -29 -3 -5 -6 -27 -7 -50 -2 -23 -5 -56 -9 -73 -3
-18 -8 -48 -11 -65 -12 -70 -93 -285 -147 -392 -21 -41 -61 -86 -77 -86 -29 0
-124 139 -133 195 -2 11 -7 23 -11 26 -4 3 -10 17 -12 31 -3 14 -11 44 -20 67
-8 23 -14 43 -15 46 0 3 0 6 -1 8 -2 5 -18 83 -23 110 -3 12 -7 46 -10 75 -3
30 -9 58 -12 63 -3 5 -1 9 5 9 7 0 7 8 1 25 -6 17 -6 25 1 25 6 0 7 5 3 11
-10 17 -11 51 -2 77 6 16 5 21 -4 16 -7 -5 -8 -3 -3 6 4 7 9 44 11 82 3 71 1
75 -43 83 -10 2 -18 4 -18 5 0 1 -11 3 -25 4 -14 2 -47 7 -75 11 -59 9 -257
10 -300 1 -46 -10 -108 -19 -127 -20 -10 0 -18 -3 -18 -6 0 -3 -8 -6 -17 -7
-21 -1 -69 -11 -98 -20 -44 -13 -46 -24 -23 -153 6 -36 12 -74 13 -85 1 -11 4
-29 8 -40 3 -11 8 -31 11 -45 20 -107 70 -247 111 -315 38 -63 86 -127 103
-138 7 -5 10 -12 7 -18 -4 -5 -2 -9 4 -9 14 0 60 -47 53 -54 -3 -3 1 -6 9 -6
14 0 48 -34 104 -104 17 -21 36 -44 43 -51 6 -8 12 -18 12 -23 0 -6 3 -12 8
-14 4 -1 33 -37 65 -78 31 -41 64 -84 73 -95 35 -44 65 -93 70 -116 12 -53 10
-95 -4 -129 -26 -62 -73 -194 -78 -220 -5 -24 32 -121 49 -128 4 -2 5 -8 1
-13 -3 -5 0 -9 6 -9 6 0 8 -4 5 -10 -3 -5 -2 -10 3 -10 5 0 15 -15 23 -32 7
-18 15 -35 19 -38 11 -10 60 -90 55 -90 -3 0 6 -11 21 -25 15 -14 24 -25 20
-25 -4 0 0 -7 8 -16 9 -9 29 -32 44 -52 69 -92 120 -142 138 -135 8 3 11 9 8
14 -3 5 0 9 5 9 6 0 10 6 9 13 -2 6 2 11 9 10 7 -2 10 3 7 10 -2 7 2 33 10 59
14 47 15 223 1 333 -11 93 -12 115 -3 115 5 0 7 4 4 9 -7 11 14 74 28 83 8 5
7 8 -1 8 -7 0 -10 7 -7 15 4 8 9 13 13 11 3 -2 7 6 8 17 5 46 11 62 24 59 11
-3 11 -1 3 8 -14 14 10 70 29 70 8 0 8 3 -1 9 -10 6 -11 13 -1 34 7 15 16 24
20 21 5 -3 6 3 2 12 -4 11 -2 15 4 11 6 -4 9 3 8 18 -2 14 3 26 12 30 9 3 13
8 10 12 -4 3 1 12 11 20 9 8 12 12 5 9 -8 -5 -8 0 0 18 7 13 15 22 19 20 5 -3
8 4 8 15 0 12 5 21 11 21 5 0 7 5 4 10 -3 6 -1 10 6 10 7 0 9 3 6 7 -4 3 2 13
13 20 11 8 18 18 15 23 -3 4 2 11 10 14 8 3 14 11 13 18 -2 7 2 12 9 11 7 -2
10 4 7 12 -4 9 0 15 10 15 8 0 13 6 10 13 -2 7 6 24 18 37 13 14 23 27 24 30
3 17 17 39 23 35 4 -2 8 1 8 8 0 20 34 67 44 61 5 -3 6 2 3 10 -3 9 1 23 10
32 9 8 14 19 11 24 -3 4 2 11 11 14 9 4 14 9 11 13 -4 3 1 12 11 20 10 9 11
12 2 7 -11 -6 -10 -2 3 13 9 11 14 23 10 26 -3 4 -2 7 4 7 6 0 14 11 17 25 4
14 11 23 16 20 6 -3 7 1 4 9 -3 9 -1 16 5 16 6 0 8 7 5 15 -4 9 1 18 11 21 13
5 14 9 3 15 -9 6 -9 9 -1 9 7 0 15 16 19 35 3 19 11 35 18 35 6 0 4 5 -4 10
-11 7 -11 10 -2 10 7 0 10 5 7 10 -3 6 0 10 7 10 9 0 9 3 -2 10 -8 5 -10 10
-3 10 6 0 10 8 9 18 -2 9 0 29 5 44 4 15 4 30 -1 33 -5 3 -5 18 -1 33 4 15 6
60 5 100 -2 50 1 70 8 66 7 -5 8 -2 2 7 -4 8 -10 32 -11 54 -5 76 -20 103 -76
132 -26 13 -249 25 -302 16z"/>
<path d="M3440 2782 c-11 -9 -22 -28 -25 -42 -6 -38 -19 -266 -31 -545 -9
-207 -9 -1241 0 -1515 4 -124 9 -282 10 -352 5 -176 23 -202 111 -159 35 17
81 18 71 2 -3 -4 5 -8 17 -8 12 -1 23 -7 25 -13 2 -5 12 -10 23 -10 10 0 19
-6 19 -12 0 -10 2 -10 9 0 4 8 11 13 15 13 23 -3 36 0 31 9 -3 6 -1 10 5 10 6
0 9 4 6 9 -4 5 -1 11 6 13 17 6 24 76 13 148 -3 19 -8 69 -11 110 -3 41 -8 78
-11 83 -2 4 2 7 9 7 10 0 10 2 -1 9 -7 5 -11 15 -9 22 3 8 2 24 -3 35 -4 12
-5 25 -1 28 9 9 10 46 1 46 -8 0 -2 46 7 61 2 4 0 10 -6 14 -6 4 -7 11 -3 18
6 10 9 47 12 150 1 21 5 36 10 33 4 -3 6 5 4 18 -3 16 3 31 19 46 12 13 16 19
8 15 -12 -7 -13 -6 -2 6 33 36 90 2 94 -55 3 -48 6 -80 8 -86 1 -3 3 -25 5
-50 2 -25 6 -56 8 -70 3 -14 8 -56 11 -95 7 -73 13 -129 20 -180 16 -109 19
-132 22 -150 3 -11 7 -38 10 -60 2 -22 10 -58 16 -80 5 -22 10 -51 10 -63 0
-14 17 -41 38 -63 20 -21 36 -40 34 -41 -1 -2 29 -3 67 -3 38 -1 69 3 69 8 0
4 4 6 8 3 5 -3 16 8 26 25 9 16 22 29 27 29 6 0 7 5 4 10 -3 6 -2 10 4 10 6 0
13 16 17 35 3 19 10 38 15 40 4 3 6 14 4 25 -2 11 1 20 6 20 6 0 8 9 4 19 -3
11 -1 23 6 26 8 6 8 9 -1 15 -9 5 -9 13 -2 27 8 15 8 23 -1 33 -9 10 -9 13 0
17 9 3 10 9 1 23 -9 14 -9 22 3 36 9 11 9 15 2 10 -13 -7 -15 3 -15 86 -1 16
-3 28 -7 28 -3 0 -6 10 -7 23 -2 44 -12 122 -17 137 -4 8 -8 29 -11 45 -2 17
-5 30 -6 30 -1 0 -3 11 -6 25 -2 14 -11 47 -20 73 -9 26 -13 55 -10 63 3 8 2
13 -2 10 -12 -7 -45 101 -36 116 4 6 3 8 -2 5 -9 -5 -50 89 -46 106 1 4 -3 7
-9 7 -5 0 -8 3 -6 8 3 4 -4 25 -15 47 -38 77 -39 112 -4 150 14 15 23 31 20
36 -3 5 0 9 6 9 6 0 9 4 5 9 -3 5 -1 12 5 16 6 4 8 11 5 16 -4 5 -1 9 6 9 7 0
9 3 6 7 -4 3 1 15 10 26 10 11 12 17 6 13 -19 -11 -16 5 5 21 10 8 11 11 2 7
-13 -7 -13 -5 -1 9 7 9 10 17 7 17 -4 0 -1 10 6 23 14 25 15 29 17 58 0 11 5
18 10 14 6 -3 8 6 5 20 -2 14 -1 25 4 25 5 0 9 6 10 13 1 12 9 47 12 57 1 3 3
10 5 15 1 6 3 12 5 15 1 3 3 18 4 33 0 15 8 32 16 37 13 9 13 10 0 10 -13 0
-13 1 0 10 11 7 11 10 2 10 -7 0 -10 5 -7 10 8 13 16 55 19 95 1 17 4 35 7 40
7 12 4 173 -4 235 -6 42 -20 117 -31 165 -11 47 -50 170 -56 175 -3 3 -19 22
-35 43 -32 43 -81 72 -140 82 -22 4 -156 8 -297 10 -230 3 -260 2 -278 -13z
m446 -527 c41 -55 53 -100 49 -200 -3 -78 -8 -123 -15 -132 -2 -2 -3 -6 -4
-10 -11 -47 -76 -187 -144 -308 -9 -16 -17 -31 -17 -32 0 -1 -12 -4 -27 -8
-28 -7 -38 8 -43 68 -2 15 -5 31 -8 34 -4 3 -2 14 4 24 7 13 6 19 -1 19 -8 0
-8 6 0 20 6 11 7 20 3 20 -4 0 -8 20 -8 45 0 25 4 45 9 45 5 0 3 7 -4 15 -8
10 -9 15 -1 15 7 0 8 8 1 24 -5 13 -6 27 -3 30 4 3 8 30 9 59 5 87 16 152 26
163 4 3 4 12 1 20 -3 8 0 14 7 14 6 0 9 4 5 9 -3 5 -1 12 5 16 6 4 8 11 5 16
-4 5 -1 9 5 9 6 0 8 4 5 10 -3 5 6 12 20 16 13 3 23 10 20 14 -3 5 3 10 12 12
51 10 63 7 89 -27z"/>
</g>
</svg>
